<svg xmlns="http://www.w3.org/2000/svg" version="1.1" viewBox="-5.0 -10.0 110.0 135.0">
 <path d="m95 41h-23.273l16.457-16.457c1.1719-1.1719 1.1719-3.0703 0-4.2422l-8.4844-8.4844c-1.1719-1.1719-3.0703-1.1719-4.2422 0l-16.457 16.457v-23.273c0-1.6562-1.3438-3-3-3h-12c-1.6562 0-3 1.3438-3 3v23.273l-16.457-16.457c-1.1719-1.1719-3.0703-1.1719-4.2422 0l-8.4844 8.4844c-1.1719 1.1719-1.1719 3.0703 0 4.2422l16.457 16.457h-23.273c-1.6562 0-3 1.3438-3 3v12c0 1.6562 1.3438 3 3 3h23.273l-16.457 16.457c-1.1719 1.1719-1.1719 3.0703 0 4.2422l8.4844 8.4844c1.1719 1.1719 3.0703 1.1719 4.2422 0l16.457-16.457v23.273c0 1.6562 1.3438 3 3 3h12c1.6562 0 3-1.3438 3-3v-23.273l16.457 16.457c1.1719 1.1719 3.0703 1.1719 4.2422 0l8.4844-8.4844c1.1719-1.1719 1.1719-3.0703 0-4.2422l-16.457-16.457h23.273c1.6562 0 3-1.3438 3-3v-12c0-1.6562-1.3438-3-3-3zm-3 12h-27.516c-1.6562 0-3 1.3438-3 3 0 0.79688 0.31641 1.5586 0.87891 2.1211l19.457 19.457-4.2422 4.2422-19.457-19.457c-1.1719-1.1719-3.0703-1.1719-4.2422 0-0.5625 0.5625-0.87891 1.3281-0.87891 2.1211v27.516h-6v-27.516c0-1.6562-1.3438-3-3-3-0.79688 0-1.5586 0.31641-2.1211 0.87891l-19.457 19.457-4.2422-4.2422 19.457-19.457c1.1719-1.1719 1.1719-3.0703 0-4.2422-0.5625-0.5625-1.3281-0.87891-2.1211-0.87891h-27.516v-6h27.516c1.6562 0 3-1.3438 3-3 0-0.79688-0.31641-1.5586-0.87891-2.1211l-19.457-19.457 4.2422-4.2422 19.457 19.457c1.1719 1.1719 3.0703 1.1719 4.2422 0 0.5625-0.5625 0.87891-1.3281 0.87891-2.1211v-27.516h6v27.516c0 1.6562 1.3438 3 3 3 0.79688 0 1.5586-0.31641 2.1211-0.87891l19.457-19.457 4.2422 4.2422-19.457 19.457c-1.1719 1.1719-1.1719 3.0703 0 4.2422 0.5625 0.5625 1.3281 0.87891 2.1211 0.87891h27.516z"/>
</svg>