<svg xmlns="http://www.w3.org/2000/svg" viewBox="0 0 231.57 231.57"><g id="Layer_2" data-name="Layer 2"><g id="Layer_1-2" data-name="Layer 1"><path d="M221.58,10c-19.11-19.11-49.77-6.68-74.41,3.31-12.18,4.94-23.68,9.6-31.39,9.6s-19.2-4.66-31.38-9.6C59.76,3.31,29.09-9.12,10,10S3.31,59.76,13.3,84.4c4.93,12.18,9.6,23.69,9.6,31.39s-4.67,19.2-9.6,31.38c-10,24.64-22.42,55.31-3.31,74.41,7.28,7.29,16.24,10,25.91,10,15.7,0,33.26-7.12,48.5-13.3,12.18-4.94,23.68-9.6,31.38-9.6s19.21,4.66,31.39,9.6c24.64,10,55.31,22.42,74.41,3.31s6.68-49.77-3.31-74.41c-4.94-12.18-9.6-23.68-9.6-31.38s4.66-19.21,9.6-31.39C228.26,59.76,240.69,29.09,221.58,10Zm-20.31,105.8c0,9.14,4.7,20.73,10.14,34.16,9.65,23.79,20.58,50.76,4.94,66.4s-42.61,4.71-66.4-4.94c-13.43-5.44-25-10.14-34.17-10.14S95.05,206,81.62,211.41c-23.79,9.65-50.76,20.58-66.4,4.94s-4.71-42.61,4.93-66.4c5.45-13.43,10.15-25,10.15-34.16S25.6,95.05,20.15,81.62C10.51,57.83-.42,30.86,15.22,15.22s42.61-4.71,66.4,4.94c13.43,5.44,25,10.14,34.16,10.14S136.52,25.6,150,20.16c23.79-9.65,50.76-20.58,66.4-4.94s4.71,42.61-4.94,66.4C206,95.05,201.27,106.64,201.27,115.79Z"/><path d="M141.7,29.81c-10.09,4.09-19.62,8-25.92,8S100,33.9,89.87,29.81C69.16,21.42,43.39,11,27.18,27.18s-5.76,42,2.63,62.69c4.09,10.09,8,19.62,8,25.92s-3.86,15.82-7.95,25.92c-8.39,20.7-18.84,46.47-2.63,62.68s42,5.77,62.69-2.63c10.09-4.09,19.62-7.95,25.91-7.95s15.83,3.86,25.92,7.95c12.78,5.18,27.47,11.14,40.67,11.14,8.19,0,15.81-2.3,22-8.51,16.21-16.21,5.76-42-2.63-62.69-4.09-10.09-7.95-19.62-7.95-25.91s3.86-15.83,7.95-25.92c8.39-20.71,18.84-46.47,2.63-62.69S162.41,21.42,141.7,29.81Zm53.2,57.28c-4.56,11.24-8.49,21-8.49,28.7s3.93,17.45,8.49,28.69c8,19.66,17,41.93,4.25,54.67s-35,3.72-54.67-4.24c-11.24-4.56-21-8.5-28.7-8.5s-17.45,3.94-28.7,8.49c-19.65,8-41.92,17-54.67,4.25s-3.71-35,4.25-54.67c4.56-11.24,8.5-21,8.5-28.69s-3.94-17.46-8.5-28.7c-8-19.66-17-41.93-4.25-54.67,4.61-4.61,10.45-6.37,17-6.37,11.53,0,25.16,5.53,37.71,10.62,11.25,4.55,21,8.49,28.7,8.49s17.46-3.94,28.7-8.5c19.65-8,41.93-17,54.67-4.24S202.87,67.43,194.9,87.09Z"/><path d="M136.24,46.32c-8,3.24-15.56,6.31-20.46,6.31s-12.45-3.07-20.45-6.31c-16.77-6.8-37.63-15.26-50.95-1.94s-4.86,34.18,1.94,50.95c3.24,8,6.31,15.56,6.31,20.46s-3.07,12.45-6.31,20.45c-6.8,16.77-15.26,37.63-1.94,50.95s34.18,4.86,50.95-1.94c8-3.24,15.56-6.31,20.45-6.31s12.46,3.07,20.46,6.31c10.3,4.18,22.14,9,32.83,9,6.72,0,13-1.9,18.12-7,13.32-13.32,4.86-34.18-1.94-50.95-3.24-8-6.31-15.56-6.31-20.45s3.07-12.46,6.31-20.46c6.8-16.77,15.26-37.63,1.94-50.95S153,39.52,136.24,46.32Zm42.15,46.23c-3.67,9.07-6.85,16.9-6.85,23.24S174.72,130,178.39,139c6.29,15.51,13.42,33.09,3.57,42.94s-27.43,2.72-42.94-3.57c-9.07-3.67-16.9-6.85-23.24-6.85s-14.16,3.18-23.23,6.85C77,184.68,59.46,191.81,49.61,182S46.89,154.53,53.17,139C56.85,130,60,122.12,60,115.79s-3.18-14.17-6.86-23.24C46.89,77,39.76,59.46,49.61,49.61S77,46.89,92.55,53.18c9.07,3.67,16.9,6.85,23.23,6.85S130,56.85,139,53.18c15.51-6.29,33.08-13.42,42.94-3.57S184.68,77,178.39,92.55Z"/><path d="M130.78,62.83c-5.92,2.4-11.51,4.66-15,4.66s-9.07-2.26-15-4.66C88,57.63,72,51.16,61.58,61.58S57.63,88,62.83,100.79c2.4,5.92,4.66,11.51,4.66,15s-2.26,9.07-4.66,15c-5.2,12.83-11.67,28.79-1.25,39.21a19.21,19.21,0,0,0,14.22,5.57c8.18,0,17.17-3.65,25-6.82,5.92-2.4,11.5-4.66,15-4.66s9.08,2.26,15,4.66c12.83,5.2,28.79,11.67,39.21,1.25s3.95-26.38-1.25-39.21c-2.4-5.92-4.66-11.5-4.66-15s2.26-9.08,4.66-15C173.94,88,180.41,72,170,61.58S143.61,57.63,130.78,62.83ZM161.88,98c-2.79,6.89-5.2,12.84-5.2,17.78s2.41,10.88,5.2,17.77c4.61,11.37,9.83,24.25,2.88,31.2s-19.83,1.73-31.2-2.87c-6.89-2.8-12.84-5.21-17.78-5.21S104.9,159.09,98,161.89c-11.37,4.6-24.25,9.82-31.2,2.87s-1.73-19.83,2.87-31.2c2.8-6.89,5.21-12.84,5.21-17.77S72.48,104.9,69.68,98c-4.6-11.37-9.83-24.25-2.87-31.2A12.37,12.37,0,0,1,76,63.43c6.63,0,14.66,3.26,22.05,6.26,6.89,2.79,12.84,5.2,17.77,5.2s10.89-2.41,17.78-5.2c11.36-4.61,24.25-9.83,31.2-2.88S166.49,86.64,161.88,98Z"/><path d="M125.32,79.34c-3.66,1.48-7.45,3-9.54,3s-5.87-1.54-9.53-3c-8.89-3.61-20-8.09-27.48-.57s-3,18.59.57,27.48c1.48,3.66,3,7.45,3,9.54s-1.54,5.87-3,9.53c-3.61,8.89-8.09,20-.57,27.48s18.59,3,27.48-.57c3.66-1.48,7.45-3,9.53-3s5.88,1.54,9.54,3c5.34,2.17,11.48,4.66,17.15,4.66a14,14,0,0,0,10.32-4.09c7.53-7.53,3.05-18.59-.56-27.48-1.48-3.66-3-7.45-3-9.53s1.54-5.88,3-9.54c3.61-8.89,8.09-20,.56-27.48S134.21,75.73,125.32,79.34Zm20.06,24.13c-1.92,4.72-3.57,8.79-3.57,12.32s1.65,7.6,3.57,12.31c2.92,7.22,6.24,15.41,2.18,19.46s-12.24.74-19.46-2.18c-4.72-1.92-8.79-3.57-12.32-3.57s-7.6,1.65-12.31,3.57c-7.22,2.92-15.41,6.24-19.46,2.18s-.74-12.24,2.18-19.46c1.91-4.71,3.56-8.79,3.56-12.31s-1.65-7.6-3.56-12.32C83.27,96.25,80,88.06,84,84s12.24-.74,19.46,2.18c4.71,1.92,8.79,3.57,12.31,3.57s7.6-1.65,12.32-3.57c7.22-2.92,15.4-6.24,19.46-2.18S148.3,96.25,145.38,103.47Z"/><path d="M135.6,96c-4.63-4.63-11.32-1.92-15.74-.12a20.12,20.12,0,0,1-4.08,1.37,20.27,20.27,0,0,1-4.07-1.37c-4.42-1.8-11.11-4.51-15.74.12s-1.92,11.32-.12,15.74a20.12,20.12,0,0,1,1.37,4.08,20.27,20.27,0,0,1-1.37,4.07c-1.8,4.42-4.51,11.11.12,15.74s11.32,1.92,15.74.12a20.27,20.27,0,0,1,4.07-1.37,20.12,20.12,0,0,1,4.08,1.37c2.61,1.06,6,2.44,9.31,2.44a8.71,8.71,0,0,0,6.43-2.56c4.63-4.63,1.92-11.32.12-15.74a20.27,20.27,0,0,1-1.37-4.07,20.12,20.12,0,0,1,1.37-4.08C137.52,107.29,140.23,100.6,135.6,96Zm-6.73,26.67c1.06,2.61,2.66,6.56,1.5,7.73s-5.12-.44-7.73-1.5c-2.43-1-4.73-1.92-6.86-1.92s-4.42.93-6.85,1.92c-2.61,1.06-6.57,2.66-7.73,1.5s.44-5.12,1.5-7.73c1-2.43,1.92-4.73,1.92-6.85s-.93-4.43-1.92-6.86c-1.06-2.61-2.66-6.56-1.5-7.73a1.85,1.85,0,0,1,1.31-.4c1.72,0,4.45,1.11,6.42,1.9,2.43,1,4.73,1.92,6.85,1.92s4.42-.93,6.86-1.92c2.61-1.06,6.56-2.66,7.73-1.5s-.44,5.12-1.5,7.73c-1,2.43-1.92,4.73-1.92,6.86S127.88,120.21,128.87,122.64Z"/></g></g></svg>